<svg fill="none" height="32" viewBox="0 0 32 32" width="32" xmlns="http://www.w3.org/2000/svg"><path d="m16 32c8.8366 0 16-7.1634 16-16 0-8.83656-7.1634-16-16-16-8.83656 0-16 7.16344-16 16 0 8.8366 7.16344 16 16 16z" fill="#627eea"/><g fill="#fff"><path d="m16.498 4v8.87l7.497 3.35z" fill-opacity=".602"/><path d="m16.498 4-7.498 12.22 7.498-3.35z"/><path d="m16.498 21.9682v6.027l7.502-10.379z" fill-opacity=".602"/><path d="m16.498 27.9952v-6.028l-7.498-4.351z"/><path d="m16.498 20.5731 7.497-4.353-7.497-3.348z" fill-opacity=".2"/><path d="m9 16.2201 7.498 4.353v-7.701z" fill-opacity=".602"/></g></svg>