<?xml version="1.0" standalone="no"?>
<!DOCTYPE svg PUBLIC "-//W3C//DTD SVG 20010904//EN"
 "http://www.w3.org/TR/2001/REC-SVG-20010904/DTD/svg10.dtd">
<svg version="1.0" xmlns="http://www.w3.org/2000/svg"
 width="1338.000000pt" height="336.000000pt" viewBox="0 0 1338.000000 336.000000"
 preserveAspectRatio="xMidYMid meet">
<metadata>
Created by potrace 1.15, written by Peter Selinger 2001-2017
</metadata>
<g transform="translate(0.000000,336.000000) scale(0.100000,-0.100000)"
fill="#000000" stroke="none">
<path d="M7835 3190 c-402 -51 -791 -360 -1018 -810 -150 -298 -216 -569 -215
-885 1 -582 251 -1056 663 -1260 142 -70 232 -90 405 -90 201 0 318 30 499
126 343 182 613 522 757 951 140 417 138 847 -6 1237 -138 375 -444 657 -784
722 -76 14 -222 19 -301 9z m211 -155 c118 -11 270 -67 371 -136 82 -57 200
-177 263 -270 102 -149 167 -310 200 -500 136 -768 -274 -1578 -905 -1788
-229 -76 -450 -63 -658 39 -304 148 -508 461 -578 885 -17 99 -17 392 0 495
32 207 116 449 213 619 199 350 513 594 833 650 108 19 116 20 261 6z"/>
<path d="M8018 2683 c-14 -16 -67 -82 -118 -148 -52 -66 -196 -251 -322 -412
-167 -214 -228 -299 -228 -318 0 -19 50 -90 186 -261 102 -129 192 -234 200
-234 8 0 135 56 282 124 218 102 269 129 276 150 7 18 -17 158 -98 563 -59
296 -113 544 -118 551 -16 19 -32 15 -60 -15z"/>
<path d="M7327 1552 c-10 -10 -17 -27 -17 -37 0 -33 232 -860 245 -874 7 -7
21 -10 31 -6 11 3 153 155 317 336 244 270 297 334 297 358 0 16 -7 34 -14 41
-16 13 -56 -3 -341 -140 l-150 -71 -25 32 c-153 198 -302 379 -313 379 -8 0
-21 -8 -30 -18z"/>
<path d="M611 2983 c-87 -551 -111 -708 -130 -828 -12 -71 -39 -245 -61 -385
-22 -140 -49 -311 -60 -380 -11 -69 -38 -240 -60 -380 -22 -140 -49 -309 -59
-375 -11 -66 -31 -196 -46 -290 -14 -93 -28 -178 -31 -187 -5 -17 20 -18 419
-18 l425 0 5 23 c4 12 33 198 67 412 104 675 121 779 124 782 2 2 26 -144 76
-472 61 -402 111 -722 115 -732 6 -19 895 -19 895 0 0 6 -11 50 -24 97 -14 47
-61 216 -106 375 -96 341 -229 813 -236 836 -3 11 7 19 38 28 74 22 201 86
263 133 105 80 208 227 255 364 95 275 89 629 -15 834 -84 166 -263 280 -516
329 -174 35 -304 41 -815 41 l-490 0 -33 -207z m970 -434 c119 -40 167 -160
140 -346 -31 -212 -131 -330 -306 -362 -53 -10 -135 -15 -135 -8 0 1 5 29 10
62 6 33 30 191 55 350 25 160 48 296 50 303 6 16 139 16 186 1z"/>
<path d="M2936 3163 c-3 -16 -22 -129 -41 -253 -19 -124 -62 -396 -95 -605
-33 -209 -78 -495 -100 -635 -22 -140 -49 -309 -59 -375 -11 -66 -36 -223 -55
-350 -20 -126 -43 -270 -51 -320 -13 -82 -57 -358 -71 -447 l-6 -38 751 0
c592 0 753 3 756 12 2 7 16 87 30 178 39 257 84 542 89 573 l6 27 -330 0 -330
0 5 23 c3 12 16 96 30 187 14 91 28 175 31 188 l4 22 295 0 c271 0 294 1 299
18 3 9 15 80 27 157 33 223 58 385 69 450 5 33 10 66 10 73 0 9 -65 12 -289
12 -160 0 -292 3 -295 8 -2 4 10 92 27 195 l31 187 323 0 323 0 10 23 c5 12
19 85 30 162 47 307 60 393 73 473 l14 82 -753 0 -752 0 -6 -27z"/>
<path d="M4544 3128 c4 -35 13 -164 21 -288 16 -237 41 -592 75 -1075 11 -159
29 -418 40 -575 11 -157 29 -413 40 -570 11 -157 23 -329 26 -382 l7 -98 467
0 c365 0 469 3 473 13 5 14 64 165 307 797 162 420 359 932 555 1440 48 124
104 270 125 325 21 55 70 183 109 284 39 101 71 185 71 187 0 2 -190 3 -422 2
l-421 -3 -38 -120 c-52 -167 -140 -444 -259 -820 -125 -393 -205 -649 -273
-865 l-52 -165 -3 988 -2 987 -426 0 -426 0 6 -62z"/>
<path d="M9455 3178 c-21 -58 -72 -306 -105 -508 -22 -135 -45 -272 -50 -305
-6 -33 -26 -161 -45 -285 -19 -124 -62 -396 -95 -605 -33 -209 -87 -551 -120
-760 -33 -209 -67 -420 -75 -470 -8 -50 -15 -93 -15 -97 0 -5 191 -8 425 -8
234 0 425 4 425 9 0 4 6 46 14 92 8 46 24 142 35 214 20 125 50 317 91 570 11
66 31 191 45 277 14 86 25 166 25 177 0 12 3 21 8 21 4 0 54 -306 111 -680
l105 -680 459 0 460 0 -6 32 c-3 18 -36 159 -72 313 -36 154 -91 388 -122 520
-74 319 -89 384 -113 485 -11 47 -31 132 -44 190 l-25 105 420 700 419 700
-427 3 c-333 2 -430 -1 -439 -10 -6 -7 -93 -168 -192 -358 -99 -190 -222 -426
-274 -525 -52 -99 -114 -217 -137 -262 -24 -46 -46 -85 -50 -88 -4 -2 -4 19 1
48 9 58 74 475 113 722 45 293 66 420 71 448 l6 27 -412 0 c-319 0 -412 -3
-415 -12z"/>
<path d="M11770 3181 c0 -8 -44 -292 -90 -581 -11 -69 -38 -240 -60 -380 -22
-140 -49 -311 -60 -380 -11 -69 -38 -240 -60 -380 -22 -140 -49 -311 -60 -380
-11 -69 -38 -240 -60 -380 -69 -439 -79 -504 -85 -532 l-7 -28 756 0 c416 0
756 4 756 9 0 4 14 93 30 197 43 269 90 573 90 579 0 3 -146 5 -325 5 -253 0
-325 3 -325 13 0 6 14 101 31 210 l32 197 298 0 c246 0 299 2 299 14 0 7 20
143 45 302 25 159 49 313 52 342 l6 52 -292 0 -291 0 0 23 c0 25 48 321 56
349 5 16 32 18 332 20 l327 3 32 205 c50 329 73 473 79 503 l6 27 -756 0
c-416 0 -756 -4 -756 -9z"/>
</g>
</svg>
