<?xml version="1.0" encoding="UTF-8" standalone="no"?>
<svg
   version="1.0"
   width="1356.9647pt"
   height="305.125pt"
   viewBox="0 0 1356.9647 305.125"
   preserveAspectRatio="xMidYMid meet"
   id="svg6660"
   sodipodi:docname="revoke-new.svg"
   inkscape:version="1.1.2 (b8e25be8, 2022-02-05)"
   xmlns:inkscape="http://www.inkscape.org/namespaces/inkscape"
   xmlns:sodipodi="http://sodipodi.sourceforge.net/DTD/sodipodi-0.dtd"
   xmlns="http://www.w3.org/2000/svg"
   xmlns:svg="http://www.w3.org/2000/svg">
  <defs
     id="defs6664" />
  <sodipodi:namedview
     id="namedview6662"
     pagecolor="#ffffff"
     bordercolor="#666666"
     borderopacity="1.0"
     inkscape:pageshadow="2"
     inkscape:pageopacity="0.0"
     inkscape:pagecheckerboard="0"
     inkscape:document-units="pt"
     showgrid="false"
     inkscape:snap-others="false"
     inkscape:object-nodes="false"
     fit-margin-top="0"
     fit-margin-left="0"
     fit-margin-bottom="0"
     fit-margin-right="0"
     lock-margins="false"
     inkscape:zoom="0.89339612"
     inkscape:cx="1141.1511"
     inkscape:cy="254.64628"
     inkscape:window-width="1296"
     inkscape:window-height="969"
     inkscape:window-x="0"
     inkscape:window-y="38"
     inkscape:window-maximized="0"
     inkscape:current-layer="g6658" />
  <metadata
     id="metadata6640">
Created by potrace 1.15, written by Peter Selinger 2001-2017
</metadata>
  <g
     transform="matrix(0.1,0,0,-0.1,-16.349792,319)"
     fill="#000000"
     stroke="none"
     id="g6658">
    <path
       d="M 611,2983 C 524,2432 500,2275 481,2155 469,2084 442,1910 420,1770 398,1630 371,1459 360,1390 349,1321 322,1150 300,1010 278,870 251,701 241,635 230,569 210,439 195,345 181,252 167,167 164,158 c -5,-17 20,-18 419,-18 h 425 l 5,23 c 4,12 33,198 67,412 104,675 121,779 124,782 2,2 26,-144 76,-472 61,-402 111,-722 115,-732 6,-19 895,-19 895,0 0,6 -11,50 -24,97 -14,47 -61,216 -106,375 -96,341 -229,813 -236,836 -3,11 7,19 38,28 74,22 201,86 263,133 105,80 208,227 255,364 95,275 89,629 -15,834 -84,166 -263,280 -516,329 -174,35 -304,41 -815,41 H 644 Z m 970,-434 c 119,-40 167,-160 140,-346 -31,-212 -131,-330 -306,-362 -53,-10 -135,-15 -135,-8 0,1 5,29 10,62 6,33 30,191 55,350 25,160 48,296 50,303 6,16 139,16 186,1 z"
       id="path6648" />
    <path
       d="m 2936,3163 c -3,-16 -22,-129 -41,-253 -19,-124 -62,-396 -95,-605 -33,-209 -78,-495 -100,-635 -22,-140 -49,-309 -59,-375 -11,-66 -36,-223 -55,-350 -20,-126 -43,-270 -51,-320 -13,-82 -57,-358 -71,-447 l -6,-38 h 751 c 592,0 753,3 756,12 2,7 16,87 30,178 39,257 84,542 89,573 l 6,27 h -330 -330 l 5,23 c 3,12 16,96 30,187 14,91 28,175 31,188 l 4,22 h 295 c 271,0 294,1 299,18 3,9 15,80 27,157 33,223 58,385 69,450 5,33 10,66 10,73 0,9 -65,12 -289,12 -160,0 -292,3 -295,8 -2,4 10,92 27,195 l 31,187 h 323 323 l 10,23 c 5,12 19,85 30,162 47,307 60,393 73,473 l 14,82 h -753 -752 z"
       id="path6650" />
    <path
       d="m 4544,3128 c 4,-35 13,-164 21,-288 16,-237 41,-592 75,-1075 11,-159 29,-418 40,-575 11,-157 29,-413 40,-570 11,-157 23,-329 26,-382 l 7,-98 h 467 c 365,0 469,3 473,13 5,14 64,165 307,797 162,420 359,932 555,1440 48,124 104,270 125,325 21,55 70,183 109,284 39,101 71,185 71,187 0,2 -190,3 -422,2 l -421,-3 -38,-120 c -52,-167 -140,-444 -259,-820 -125,-393 -205,-649 -273,-865 l -52,-165 -3,988 -2,987 h -426 -426 z"
       id="path6652" />
    <path
       d="m 9910.5507,3178 c -21,-58 -71.9999,-306 -104.9999,-508 -22,-135 -45,-272 -50,-305 -6,-33 -26,-161 -45,-285 -19,-124 -62,-396 -95,-605 -33,-209 -87,-551 -120,-760 -33,-209 -67,-420 -75,-470 -8,-50 -15,-93 -15,-97 0,-5 191,-8 425,-8 234.0002,0 425.0002,4 425.0002,9 0,4 6,46 14,92 8,46 24,142 35,214 20,125 50,317 91,570 11,66 31,191 45,277 14,86 25,166 25,177 0,12 3,21 8,21 4,0 54,-306 111,-680 l 105,-680 h 459 460 l -6,32 c -3,18 -36,159 -72,313 -36,154 -91,388 -122,520 -74,319 -89,384 -113,485 -11,47 -31,132 -44,190 l -25,105 420,700 419,700 -427,3 c -333,2 -430,-1 -439,-10 -6,-7 -93,-168 -192,-358 -99,-190 -222,-426 -274,-525 -52,-99 -114,-217 -137,-262 -24,-46 -46,-85 -50,-88 -4,-2 -4,19 1,48 9,58 74,475 113,722 45,293 66,420 71,448 l 6,27 h -412 c -319,0 -412.0003,-3 -415.0003,-12 z"
       id="path6654" />
    <path
       d="m 12221.145,3181 c 0,-8 -44,-292 -90,-581 -11,-69 -38,-240 -60,-380 -22,-140 -49,-311 -60,-380 -11,-69 -38,-240 -60,-380 -22,-140 -49,-311 -60,-380 -11,-69 -38,-240 -60,-380 -69,-439 -79,-504 -85,-532 l -7,-28 h 756 c 416,0 756,4 756,9 0,4 14,93 30,197 43,269 90,573 90,579 0,3 -146,5 -325,5 -253,0 -325,3 -325,13 0,6 14,101 31,210 l 32,197 h 298 c 246,0 299,2 299,14 0,7 20,143 45,302 25,159 49,313 52,342 l 6,52 h -292 -291 v 23 c 0,25 48,321 56,349 5,16 32,18 332,20 l 327,3 32,205 c 50,329 73,473 79,503 l 6,27 h -756 c -416,0 -756,-4 -756,-9 z"
       id="path6656" />
    <g
       id="g7479"
       transform="matrix(5.3345399,0,0,-5.3345399,6846.6165,3182.4148)">
      <path
         style="fill:#000000;stroke:none"
         d="m 245.75348,0.44079182 c -6.215,1.34499998 -11.459,5.31899998 -17,8.22599998 -10.826,5.6780002 -21.624,11.2550002 -33,15.8060002 -30.485,12.194 -62.322,19.288 -95,21.538 -12.940004,0.892 -26.055004,1.724 -39.000004,0.197 -5.972,-0.705 -12.002,-0.721 -18,-1.441 -14.069,-1.689 -32.836,-8.092 -40.9999996,8.156 -4.654,9.261 -1.99999997,23.864 -1.99999997,33.999 v 76.999998 c 0,36.816 -2.26300003,74.434 2.28599997,111 10.9279996,87.825 58.0239996,169.34 125.7140036,225.753 27.419,22.851 57.064,42.526 89,58.494 10.611,5.305 24.623,14.871 37,12.235 10.33,-2.2 20.617,-8.543 30,-13.235 22.351,-11.177 43.996,-24.395 64,-39.374 73.618,-55.123 129.06,-133.302 145.576,-224.873 6.756,-37.461 5.424,-75.09 5.424,-113 V 86.921792 c 0,-11.448 3.289,-28.485 -4.532,-37.907 -10.754,-12.953 -30.566,-4.709 -44.468,-3.143 -34.725,3.912 -69.988,2.178 -104,-6.325 -23.446,-5.861 -45.56,-14.818 -67,-25.883 -10.421,-5.3790002 -21.423,-15.9460002 -34,-13.22300018 z"
         id="path353"
         sodipodi:nodetypes="cccccccsscscscccssccccc" />
      <path
         style="fill:#ffffff;stroke:none"
         d="m 247.75348,42.273792 c -4.581,1.422 -8.755,4.718 -13,6.909 -10.445,5.391 -21.004,10.647 -32,14.834 -35.713,13.597 -71.941,19.424 -110.000004,19.424 -13.364,0 -26.833,-0.493 -40,-3 -4.022,-0.766 -11.012,-2.579 -13.258,2.228 -1.201,2.571 -0.741,6.018 -0.742,8.772 v 18.999998 65 c 0,39.196 -1.571,78.282 5.424,117 11.842,65.535 48.699,124.742 97.576004,169.075 24.173,21.925 51.789,41.063 81,55.678 6.292,3.148 12.561,6.271 19,9.107 3.584,1.579 6.97,3.511 11,2.487 8.183,-2.079 16.478,-7.329 24,-11.1 18.831,-9.44 37.141,-20.75 54,-33.374 64.907,-48.6 111.877,-116.402 126.386,-196.873 5.552,-30.794 4.614,-61.836 4.614,-93 v -84 l -0.001,-20.999998 c -0.014,-2.669 0.327,-6.191 -1.741,-8.258 -2.376,-2.374 -6.315,-1.579 -9.258,-1.163 -7.661,1.085 -15.296,2.505 -23,3.251 -28.558,2.766 -57.974,1.731 -86,-4.711 -23.057,-5.3 -46.013,-12.827 -67,-23.9 -5.403,-2.851 -10.776,-5.863 -16,-9.029 -3.447,-2.09 -6.787,-4.664 -11,-3.357 z"
         id="path355"
         sodipodi:nodetypes="cscsccccsccscccccsccccccccc" />
      <path
         style="fill:#000000;stroke:none;stroke-width:0.989247"
         d="M 52.904016,92.042942 V 202.83864 c 0,29.30447 -0.85867,58.12619 4.56142,87.05376 19.12611,102.07648 98.590364,186.69768 193.288044,225.54839 V 55.440792 c -6.91286,2.51566 -13.21535,6.63785 -19.78494,9.92314 -11.07166,5.53583 -22.87536,10.54043 -34.62366,14.45686 -33.95591,11.32095 -70.98938,17.70951 -106.838714,16.14056 -12.27656,-0.53815 -24.41363,-2.37716 -36.60215,-3.91841"
         id="path357"
         sodipodi:nodetypes="csccccccc" />
      <path
         d="m 250.75348,289.70376 v 70.08078 L 138.44142,289.09704 250.75348,90.440792 Z m 0,92.78 -112.31206,-70.68749 112.31206,168.64452 c 1e-5,-32.65234 1e-5,-65.30469 0,-97.95703 z"
         id="path2230-6"
         style="fill:#ffffff;stroke-width:0.75022"
         sodipodi:nodetypes="ccccccccc" />
      <path
         d="m 250.75348,289.71496 v 70.08472 L 363.06554,289.10821 250.75348,90.440792 Z m 0,92.78521 112.31206,-70.69146 -112.31206,168.654 c -1e-5,-32.65418 -1e-5,-65.30836 0,-97.96254 z"
         id="path4073"
         style="stroke-width:0.750241"
         sodipodi:nodetypes="ccccccccc" />
    </g>
  </g>
</svg>
