<?xml version="1.0" encoding="UTF-8" standalone="no"?>
<svg
   width="500.43988"
   height="571.85431"
   version="1.1"
   id="svg377"
   sodipodi:docname="revoke.svg"
   inkscape:version="1.1.2 (b8e25be8, 2022-02-05)"
   xmlns:inkscape="http://www.inkscape.org/namespaces/inkscape"
   xmlns:sodipodi="http://sodipodi.sourceforge.net/DTD/sodipodi-0.dtd"
   xmlns="http://www.w3.org/2000/svg"
   xmlns:svg="http://www.w3.org/2000/svg">
  <defs
     id="defs381" />
  <sodipodi:namedview
     id="namedview379"
     pagecolor="#ffffff"
     bordercolor="#666666"
     borderopacity="1.0"
     inkscape:pageshadow="2"
     inkscape:pageopacity="0.0"
     inkscape:pagecheckerboard="0"
     showgrid="false"
     height="999px"
     inkscape:snap-object-midpoints="true"
     inkscape:snap-others="true"
     fit-margin-top="0"
     fit-margin-left="0"
     fit-margin-right="0"
     fit-margin-bottom="0"
     inkscape:zoom="0.47074979"
     inkscape:cx="825.27917"
     inkscape:cy="423.79201"
     inkscape:window-width="1296"
     inkscape:window-height="969"
     inkscape:window-x="0"
     inkscape:window-y="38"
     inkscape:window-maximized="0"
     inkscape:current-layer="svg377">
    <inkscape:grid
       type="xygrid"
       id="grid2528"
       originx="-249.24652"
       originy="-214.55921" />
  </sodipodi:namedview>
  <path
     style="fill:#000000;stroke:none"
     d="m 245.75348,0.44079182 c -6.215,1.34499998 -11.459,5.31899998 -17,8.22599998 -10.826,5.6780002 -21.624,11.2550002 -33,15.8060002 -30.485,12.194 -62.322,19.288 -95,21.538 -12.940004,0.892 -26.055004,1.724 -39.000004,0.197 -5.972,-0.705 -12.002,-0.721 -18,-1.441 -14.069,-1.689 -32.836,-8.092 -40.9999996,8.156 -4.654,9.261 -1.99999997,23.864 -1.99999997,33.999 v 76.999998 c 0,36.816 -2.26300003,74.434 2.28599997,111 10.9279996,87.825 58.0239996,169.34 125.7140036,225.753 27.419,22.851 57.064,42.526 89,58.494 10.611,5.305 24.623,14.871 37,12.235 10.33,-2.2 20.617,-8.543 30,-13.235 22.351,-11.177 43.996,-24.395 64,-39.374 73.618,-55.123 129.06,-133.302 145.576,-224.873 6.756,-37.461 5.424,-75.09 5.424,-113 V 86.921792 c 0,-11.448 3.289,-28.485 -4.532,-37.907 -10.754,-12.953 -30.566,-4.709 -44.468,-3.143 -34.725,3.912 -69.988,2.178 -104,-6.325 -23.446,-5.861 -45.56,-14.818 -67,-25.883 -10.421,-5.3790002 -21.423,-15.9460002 -34,-13.22300018 z"
     id="path353"
     sodipodi:nodetypes="cccccccsscscscccssccccc" />
  <path
     style="fill:#ffffff;stroke:none"
     d="m 247.75348,42.273792 c -4.581,1.422 -8.755,4.718 -13,6.909 -10.445,5.391 -21.004,10.647 -32,14.834 -35.713,13.597 -71.941,19.424 -110.000004,19.424 -13.364,0 -26.833,-0.493 -40,-3 -4.022,-0.766 -11.012,-2.579 -13.258,2.228 -1.201,2.571 -0.741,6.018 -0.742,8.772 v 18.999998 65 c 0,39.196 -1.571,78.282 5.424,117 11.842,65.535 48.699,124.742 97.576004,169.075 24.173,21.925 51.789,41.063 81,55.678 6.292,3.148 12.561,6.271 19,9.107 3.584,1.579 6.97,3.511 11,2.487 8.183,-2.079 16.478,-7.329 24,-11.1 18.831,-9.44 37.141,-20.75 54,-33.374 64.907,-48.6 111.877,-116.402 126.386,-196.873 5.552,-30.794 4.614,-61.836 4.614,-93 v -84 l -0.001,-20.999998 c -0.014,-2.669 0.327,-6.191 -1.741,-8.258 -2.376,-2.374 -6.315,-1.579 -9.258,-1.163 -7.661,1.085 -15.296,2.505 -23,3.251 -28.558,2.766 -57.974,1.731 -86,-4.711 -23.057,-5.3 -46.013,-12.827 -67,-23.9 -5.403,-2.851 -10.776,-5.863 -16,-9.029 -3.447,-2.09 -6.787,-4.664 -11,-3.357 z"
     id="path355"
     sodipodi:nodetypes="cscsccccsccscccccsccccccccc" />
  <path
     style="fill:#000000;stroke:none;stroke-width:0.989247"
     d="M 52.904016,92.042942 V 202.83864 c 0,29.30447 -0.85867,58.12619 4.56142,87.05376 19.12611,102.07648 98.590364,186.69768 193.288044,225.54839 V 55.440792 c -6.91286,2.51566 -13.21535,6.63785 -19.78494,9.92314 -11.07166,5.53583 -22.87536,10.54043 -34.62366,14.45686 -33.95591,11.32095 -70.98938,17.70951 -106.838714,16.14056 -12.27656,-0.53815 -24.41363,-2.37716 -36.60215,-3.91841"
     id="path357"
     sodipodi:nodetypes="csccccccc" />
  <path
     d="m 250.75348,289.70376 v 70.08078 L 138.44142,289.09704 250.75348,90.440792 Z m 0,92.78 -112.31206,-70.68749 112.31206,168.64452 c 1e-5,-32.65234 1e-5,-65.30469 0,-97.95703 z"
     id="path2230-6"
     style="fill:#ffffff;stroke-width:0.75022"
     sodipodi:nodetypes="ccccccccc" />
  <path
     d="m 250.75348,289.71496 v 70.08472 L 363.06554,289.10821 250.75348,90.440792 Z m 0,92.78521 112.31206,-70.69146 -112.31206,168.654 c -1e-5,-32.65418 -1e-5,-65.30836 0,-97.96254 z"
     id="path4073"
     style="stroke-width:0.750241"
     sodipodi:nodetypes="ccccccccc" />
</svg>
