<svg viewBox="0 0 512 512" xmlns="http://www.w3.org/2000/svg"><path d="m0 0h512v512h-512z" fill="#012169"/><path d="m512 0v64l-190 192 190 187v69h-67l-191-188-186 188h-68v-68l186-187-186-183v-74h62l192 188 186-188z" fill="#fff"/><path d="m184 324 11 34-153 154h-42v-3zm124-12 54 8 150 147v45zm204-312-192 196-4-44 150-152zm-512 1 193 189-59-8-134-133z" fill="#c8102e"/><path d="m176 0v512h160v-512zm-176 176v160h512v-160z" fill="#fff"/><path d="m0 208v96h512v-96zm208-208v512h96v-512z" fill="#c8102e"/></svg>