<svg height="445.04544mm" viewBox="0 0 218.75303 44.504544" width="2187.5303mm" xmlns="http://www.w3.org/2000/svg"><g stroke-width=".264583" transform="translate(-62.63352 -53.603079)"><path d="m132.35681 95.00695-5.1816-15.951199c4.3688-1.6256 6.7564-5.3848 7.4168-9.6012 1.6256-10.1092-4.4704-12.7508-13.462-12.7508h-10.0076l-6.0452 38.303199h10.3632l1.6256-10.210799c.3048-1.8796.4572-3.7592.7112-5.6388l.1524-.1016 3.2004 15.951199zm-13.6652-20.624799 1.524-9.4488c2.8448-.1524 4.6736 1.27 4.1148 4.6228-.4064 2.4892-2.2352 4.8768-4.9784 4.8768z"/><path d="m135.73581 95.00695h19.2532l1.4224-9.042399h-8.89l.9144-5.842h7.9756l1.4224-9.0424h-7.9756l.8636-5.334h8.89l1.4224-9.0424h-19.2532z"/><path d="m177.34339 95.00695 16.4592-38.303199h-11.2268l-5.334 15.748c-1.016 3.0988-1.6764 6.1468-2.6416 9.2456h-.1016c.1016-3.0988.3556-6.1468.3556-9.2456l.0508-15.748h-10.8712l2.7432 38.303199z"/><path d="m192.68181 75.855351c-1.524 9.3472.9652 19.811999 11.4808 19.811999s16.256-10.464799 17.78-19.811999c1.4732-9.3472-1.016-19.812-11.5316-19.812s-16.256 10.4648-17.7292 19.812zm10.5664 0c.3556-2.3876 1.7272-10.16 5.6388-10.16s2.8448 7.7724 2.4892 10.16c-.4064 2.3876-1.778 10.16-5.6896 10.16s-2.8448-7.7724-2.4384-10.16z"/><path d="m251.83286 95.00695-6.096-19.811999 11.176-18.4912h-10.922l-8.2804 16.3068h-.1524v.1016l.1016-.1016h-.0508.0508l2.5908-16.3068h-10.3632l-6.0452 38.303199h10.3632l2.794-17.576799h.1016-.0508l3.6576 17.576799z"/><path d="m256.08815 95.00695h19.2532l1.4224-9.042399h-8.89l.9144-5.842h7.9756l1.4224-9.0424h-7.9756l.8636-5.334h8.89l1.4224-9.0424h-19.2532z"/></g><g transform="scale(.07782497)"><path d="m245.75348.44079182c-6.215 1.34499998-11.459 5.31899998-17 8.22599998-10.826 5.6780002-21.624 11.2550002-33 15.8060002-30.485 12.194-62.322 19.288-95 21.538-12.940004.892-26.055004 1.724-39.000004.197-5.972-.705-12.002-.721-18-1.441-14.069-1.689-32.836-8.092-40.9999996 8.156-4.654 9.261-1.99999997 23.864-1.99999997 33.999v76.999998c0 36.816-2.26300003 74.434 2.28599997 111 10.9279996 87.825 58.0239996 169.34 125.7140036 225.753 27.419 22.851 57.064 42.526 89 58.494 10.611 5.305 24.623 14.871 37 12.235 10.33-2.2 20.617-8.543 30-13.235 22.351-11.177 43.996-24.395 64-39.374 73.618-55.123 129.06-133.302 145.576-224.873 6.756-37.461 5.424-75.09 5.424-113v-93.999998c0-11.448 3.289-28.485-4.532-37.907-10.754-12.953-30.566-4.709-44.468-3.143-34.725 3.912-69.988 2.178-104-6.325-23.446-5.861-45.56-14.818-67-25.883-10.421-5.3790002-21.423-15.9460002-34-13.22300018z"/><path d="m247.75348 42.273792c-4.581 1.422-8.755 4.718-13 6.909-10.445 5.391-21.004 10.647-32 14.834-35.713 13.597-71.941 19.424-110.000004 19.424-13.364 0-26.833-.493-40-3-4.022-.766-11.012-2.579-13.258 2.228-1.201 2.571-.741 6.018-.742 8.772v18.999998 65c0 39.196-1.571 78.282 5.424 117 11.842 65.535 48.699 124.742 97.576004 169.075 24.173 21.925 51.789 41.063 81 55.678 6.292 3.148 12.561 6.271 19 9.107 3.584 1.579 6.97 3.511 11 2.487 8.183-2.079 16.478-7.329 24-11.1 18.831-9.44 37.141-20.75 54-33.374 64.907-48.6 111.877-116.402 126.386-196.873 5.552-30.794 4.614-61.836 4.614-93v-84l-.001-20.999998c-.014-2.669.327-6.191-1.741-8.258-2.376-2.374-6.315-1.579-9.258-1.163-7.661 1.085-15.296 2.505-23 3.251-28.558 2.766-57.974 1.731-86-4.711-23.057-5.3-46.013-12.827-67-23.9-5.403-2.851-10.776-5.863-16-9.029-3.447-2.09-6.787-4.664-11-3.357z" fill="#fff"/><path d="m52.904016 92.042942v110.795698c0 29.30447-.85867 58.12619 4.56142 87.05376 19.12611 102.07648 98.590364 186.69768 193.288044 225.54839v-459.999998c-6.91286 2.51566-13.21535 6.63785-19.78494 9.92314-11.07166 5.53583-22.87536 10.54043-34.62366 14.45686-33.95591 11.32095-70.98938 17.70951-106.838714 16.14056-12.27656-.53815-24.41363-2.37716-36.60215-3.91841"/><path d="m250.75348 289.70376v70.08078l-112.31206-70.6875 112.31206-198.656248zm0 92.78-112.31206-70.68749 112.31206 168.64452c.00001-32.65234.00001-65.30469 0-97.95703z" fill="#fff" stroke-width=".75022"/><path d="m250.75348 289.71496v70.08472l112.31206-70.69147-112.31206-198.667418zm0 92.78521 112.31206-70.69146-112.31206 168.654c-.00001-32.65418-.00001-65.30836 0-97.96254z" stroke-width=".750241"/></g></svg>