<svg height="305.125pt" preserveAspectRatio="xMidYMid meet" viewBox="0 0 1356.9647 305.125" width="1356.9647pt" xmlns="http://www.w3.org/2000/svg"><g transform="matrix(.1 0 0 -.1 -16.349792 319)"><path d="m611 2983c-87-551-111-708-130-828-12-71-39-245-61-385s-49-311-60-380-38-240-60-380-49-309-59-375c-11-66-31-196-46-290-14-93-28-178-31-187-5-17 20-18 419-18h425l5 23c4 12 33 198 67 412 104 675 121 779 124 782 2 2 26-144 76-472 61-402 111-722 115-732 6-19 895-19 895 0 0 6-11 50-24 97-14 47-61 216-106 375-96 341-229 813-236 836-3 11 7 19 38 28 74 22 201 86 263 133 105 80 208 227 255 364 95 275 89 629-15 834-84 166-263 280-516 329-174 35-304 41-815 41h-490zm970-434c119-40 167-160 140-346-31-212-131-330-306-362-53-10-135-15-135-8 0 1 5 29 10 62 6 33 30 191 55 350 25 160 48 296 50 303 6 16 139 16 186 1z"/><path d="m2936 3163c-3-16-22-129-41-253s-62-396-95-605-78-495-100-635-49-309-59-375c-11-66-36-223-55-350-20-126-43-270-51-320-13-82-57-358-71-447l-6-38h751c592 0 753 3 756 12 2 7 16 87 30 178 39 257 84 542 89 573l6 27h-330-330l5 23c3 12 16 96 30 187s28 175 31 188l4 22h295c271 0 294 1 299 18 3 9 15 80 27 157 33 223 58 385 69 450 5 33 10 66 10 73 0 9-65 12-289 12-160 0-292 3-295 8-2 4 10 92 27 195l31 187h323 323l10 23c5 12 19 85 30 162 47 307 60 393 73 473l14 82h-753-752z"/><path d="m4544 3128c4-35 13-164 21-288 16-237 41-592 75-1075 11-159 29-418 40-575s29-413 40-570 23-329 26-382l7-98h467c365 0 469 3 473 13 5 14 64 165 307 797 162 420 359 932 555 1440 48 124 104 270 125 325s70 183 109 284 71 185 71 187-190 3-422 2l-421-3-38-120c-52-167-140-444-259-820-125-393-205-649-273-865l-52-165-3 988-2 987h-426-426z"/><path d="m9910.5507 3178c-21-58-71.9999-306-104.9999-508-22-135-45-272-50-305-6-33-26-161-45-285s-62-396-95-605-87-551-120-760-67-420-75-470-15-93-15-97c0-5 191-8 425-8 234.0002 0 425.0002 4 425.0002 9 0 4 6 46 14 92s24 142 35 214c20 125 50 317 91 570 11 66 31 191 45 277s25 166 25 177c0 12 3 21 8 21 4 0 54-306 111-680l105-680h459 460l-6 32c-3 18-36 159-72 313s-91 388-122 520c-74 319-89 384-113 485-11 47-31 132-44 190l-25 105 420 700 419 700-427 3c-333 2-430-1-439-10-6-7-93-168-192-358s-222-426-274-525-114-217-137-262c-24-46-46-85-50-88-4-2-4 19 1 48 9 58 74 475 113 722 45 293 66 420 71 448l6 27h-412c-319 0-412.0003-3-415.0003-12z"/><path d="m12221.145 3181c0-8-44-292-90-581-11-69-38-240-60-380s-49-311-60-380-38-240-60-380-49-311-60-380-38-240-60-380c-69-439-79-504-85-532l-7-28h756c416 0 756 4 756 9 0 4 14 93 30 197 43 269 90 573 90 579 0 3-146 5-325 5-253 0-325 3-325 13 0 6 14 101 31 210l32 197h298c246 0 299 2 299 14 0 7 20 143 45 302s49 313 52 342l6 52h-292-291v23c0 25 48 321 56 349 5 16 32 18 332 20l327 3 32 205c50 329 73 473 79 503l6 27h-756c-416 0-756-4-756-9z"/><g transform="matrix(5.3345399 0 0 -5.3345399 6846.6165 3182.4148)"><path d="m245.75348.44079182c-6.215 1.34499998-11.459 5.31899998-17 8.22599998-10.826 5.6780002-21.624 11.2550002-33 15.8060002-30.485 12.194-62.322 19.288-95 21.538-12.940004.892-26.055004 1.724-39.000004.197-5.972-.705-12.002-.721-18-1.441-14.069-1.689-32.836-8.092-40.9999996 8.156-4.654 9.261-1.99999997 23.864-1.99999997 33.999v76.999998c0 36.816-2.26300003 74.434 2.28599997 111 10.9279996 87.825 58.0239996 169.34 125.7140036 225.753 27.419 22.851 57.064 42.526 89 58.494 10.611 5.305 24.623 14.871 37 12.235 10.33-2.2 20.617-8.543 30-13.235 22.351-11.177 43.996-24.395 64-39.374 73.618-55.123 129.06-133.302 145.576-224.873 6.756-37.461 5.424-75.09 5.424-113v-93.999998c0-11.448 3.289-28.485-4.532-37.907-10.754-12.953-30.566-4.709-44.468-3.143-34.725 3.912-69.988 2.178-104-6.325-23.446-5.861-45.56-14.818-67-25.883-10.421-5.3790002-21.423-15.9460002-34-13.22300018z"/><path d="m247.75348 42.273792c-4.581 1.422-8.755 4.718-13 6.909-10.445 5.391-21.004 10.647-32 14.834-35.713 13.597-71.941 19.424-110.000004 19.424-13.364 0-26.833-.493-40-3-4.022-.766-11.012-2.579-13.258 2.228-1.201 2.571-.741 6.018-.742 8.772v18.999998 65c0 39.196-1.571 78.282 5.424 117 11.842 65.535 48.699 124.742 97.576004 169.075 24.173 21.925 51.789 41.063 81 55.678 6.292 3.148 12.561 6.271 19 9.107 3.584 1.579 6.97 3.511 11 2.487 8.183-2.079 16.478-7.329 24-11.1 18.831-9.44 37.141-20.75 54-33.374 64.907-48.6 111.877-116.402 126.386-196.873 5.552-30.794 4.614-61.836 4.614-93v-84l-.001-20.999998c-.014-2.669.327-6.191-1.741-8.258-2.376-2.374-6.315-1.579-9.258-1.163-7.661 1.085-15.296 2.505-23 3.251-28.558 2.766-57.974 1.731-86-4.711-23.057-5.3-46.013-12.827-67-23.9-5.403-2.851-10.776-5.863-16-9.029-3.447-2.09-6.787-4.664-11-3.357z" fill="#fff"/><path d="m52.904016 92.042942v110.795698c0 29.30447-.85867 58.12619 4.56142 87.05376 19.12611 102.07648 98.590364 186.69768 193.288044 225.54839v-459.999998c-6.91286 2.51566-13.21535 6.63785-19.78494 9.92314-11.07166 5.53583-22.87536 10.54043-34.62366 14.45686-33.95591 11.32095-70.98938 17.70951-106.838714 16.14056-12.27656-.53815-24.41363-2.37716-36.60215-3.91841"/><path d="m250.75348 289.70376v70.08078l-112.31206-70.6875 112.31206-198.656248zm0 92.78-112.31206-70.68749 112.31206 168.64452c.00001-32.65234.00001-65.30469 0-97.95703z" fill="#fff" stroke-width=".75022"/><path d="m250.75348 289.71496v70.08472l112.31206-70.69147-112.31206-198.667418zm0 92.78521 112.31206-70.69146-112.31206 168.654c-.00001-32.65418-.00001-65.30836 0-97.96254z" stroke-width=".750241"/></g></g></svg>