<?xml version="1.0" encoding="UTF-8" standalone="no"?>
<!-- Created with Inkscape (http://www.inkscape.org/) -->

<svg
   width="2187.5303mm"
   height="445.04544mm"
   viewBox="0 0 218.75303 44.504544"
   version="1.1"
   id="svg5"
   inkscape:version="1.1.2 (b8e25be8, 2022-02-05)"
   sodipodi:docname="revoke-full.svg"
   xmlns:inkscape="http://www.inkscape.org/namespaces/inkscape"
   xmlns:sodipodi="http://sodipodi.sourceforge.net/DTD/sodipodi-0.dtd"
   xmlns="http://www.w3.org/2000/svg"
   xmlns:svg="http://www.w3.org/2000/svg">
  <sodipodi:namedview
     id="namedview7"
     pagecolor="#ffffff"
     bordercolor="#666666"
     borderopacity="1.0"
     inkscape:pageshadow="2"
     inkscape:pageopacity="0.0"
     inkscape:pagecheckerboard="0"
     inkscape:document-units="mm"
     showgrid="true"
     fit-margin-top="0"
     fit-margin-left="0"
     fit-margin-right="0"
     fit-margin-bottom="0"
     inkscape:zoom="0.056614795"
     inkscape:cx="468.07552"
     inkscape:cy="256.1168"
     inkscape:window-width="1312"
     inkscape:window-height="969"
     inkscape:window-x="0"
     inkscape:window-y="38"
     inkscape:window-maximized="0"
     inkscape:current-layer="layer1"
     inkscape:snap-others="false"
     inkscape:snap-object-midpoints="true"
     inkscape:snap-midpoints="true"
     inkscape:snap-bbox="true"
     inkscape:snap-nodes="false"
     inkscape:snap-bbox-midpoints="true">
    <inkscape:grid
       type="xygrid"
       id="grid45"
       originx="4.0640025"
       originy="0.1085605" />
  </sodipodi:namedview>
  <defs
     id="defs2" />
  <g
     inkscape:label="Layer 1"
     inkscape:groupmode="layer"
     id="layer1"
     transform="translate(-64.437183,-54.957746)">
    <g
       aria-label="REVOKE"
       id="text2717"
       style="font-style:oblique;font-weight:bold;font-stretch:condensed;font-size:50.8px;line-height:1.25;font-family:'Futura Condensed Extra';-inkscape-font-specification:'Futura Condensed Extra Bold Oblique Condensed';stroke-width:0.264583"
       inkscape:export-filename="/Users/rosco/text27217.png"
       inkscape:export-xdpi="192.30769"
       inkscape:export-ydpi="192.30769"
       transform="translate(1.8036633,1.3546672)">
      <path
         d="m 132.35681,95.00695 -5.1816,-15.951199 c 4.3688,-1.6256 6.7564,-5.3848 7.4168,-9.6012 1.6256,-10.1092 -4.4704,-12.7508 -13.462,-12.7508 h -10.0076 l -6.0452,38.303199 h 10.3632 l 1.6256,-10.210799 c 0.3048,-1.8796 0.4572,-3.7592 0.7112,-5.6388 l 0.1524,-0.1016 3.2004,15.951199 z m -13.6652,-20.624799 1.524,-9.4488 c 2.8448,-0.1524 4.6736,1.27 4.1148,4.6228 -0.4064,2.4892 -2.2352,4.8768 -4.9784,4.8768 z"
         id="path4607" />
      <path
         d="m 135.73581,95.00695 h 19.2532 l 1.4224,-9.042399 h -8.89 l 0.9144,-5.842 h 7.9756 l 1.4224,-9.0424 h -7.9756 l 0.8636,-5.334 h 8.89 l 1.4224,-9.0424 h -19.2532 z"
         id="path4609" />
      <path
         d="m 177.34339,95.00695 16.4592,-38.303199 h -11.2268 l -5.334,15.748 c -1.016,3.0988 -1.6764,6.1468 -2.6416,9.2456 h -0.1016 c 0.1016,-3.0988 0.3556,-6.1468 0.3556,-9.2456 l 0.0508,-15.748 h -10.8712 l 2.7432,38.303199 z"
         id="path4611" />
      <path
         d="m 192.68181,75.855351 c -1.524,9.3472 0.9652,19.811999 11.4808,19.811999 10.5156,0 16.256,-10.464799 17.78,-19.811999 1.4732,-9.3472 -1.016,-19.812 -11.5316,-19.812 -10.5156,0 -16.256,10.4648 -17.7292,19.812 z m 10.5664,0 c 0.3556,-2.3876 1.7272,-10.16 5.6388,-10.16 3.9116,0 2.8448,7.7724 2.4892,10.16 -0.4064,2.3876 -1.778,10.16 -5.6896,10.16 -3.9116,0 -2.8448,-7.7724 -2.4384,-10.16 z"
         id="path4613" />
      <path
         d="m 251.83286,95.00695 -6.096,-19.811999 11.176,-18.4912 h -10.922 l -8.2804,16.3068 h -0.1524 v 0.1016 l 0.1016,-0.1016 h -0.0508 0.0508 l 2.5908,-16.3068 h -10.3632 l -6.0452,38.303199 h 10.3632 l 2.794,-17.576799 h 0.1016 -0.0508 l 3.6576,17.576799 z"
         id="path4615" />
      <path
         d="m 256.08815,95.00695 h 19.2532 l 1.4224,-9.042399 h -8.89 l 0.9144,-5.842 h 7.9756 l 1.4224,-9.0424 h -7.9756 l 0.8636,-5.334 h 8.89 l 1.4224,-9.0424 h -19.2532 z"
         id="path4617" />
    </g>
    <g
       id="g43"
       transform="matrix(0.07782497,0,0,0.07782497,64.437183,54.957746)">
      <path
         style="fill:#000000;stroke:none"
         d="m 245.75348,0.44079182 c -6.215,1.34499998 -11.459,5.31899998 -17,8.22599998 -10.826,5.6780002 -21.624,11.2550002 -33,15.8060002 -30.485,12.194 -62.322,19.288 -95,21.538 -12.940004,0.892 -26.055004,1.724 -39.000004,0.197 -5.972,-0.705 -12.002,-0.721 -18,-1.441 -14.069,-1.689 -32.836,-8.092 -40.9999996,8.156 -4.654,9.261 -1.99999997,23.864 -1.99999997,33.999 v 76.999998 c 0,36.816 -2.26300003,74.434 2.28599997,111 10.9279996,87.825 58.0239996,169.34 125.7140036,225.753 27.419,22.851 57.064,42.526 89,58.494 10.611,5.305 24.623,14.871 37,12.235 10.33,-2.2 20.617,-8.543 30,-13.235 22.351,-11.177 43.996,-24.395 64,-39.374 73.618,-55.123 129.06,-133.302 145.576,-224.873 6.756,-37.461 5.424,-75.09 5.424,-113 V 86.921792 c 0,-11.448 3.289,-28.485 -4.532,-37.907 -10.754,-12.953 -30.566,-4.709 -44.468,-3.143 -34.725,3.912 -69.988,2.178 -104,-6.325 -23.446,-5.861 -45.56,-14.818 -67,-25.883 -10.421,-5.3790002 -21.423,-15.9460002 -34,-13.22300018 z"
         id="path353"
         sodipodi:nodetypes="cccccccsscscscccssccccc" />
      <path
         style="fill:#ffffff;stroke:none"
         d="m 247.75348,42.273792 c -4.581,1.422 -8.755,4.718 -13,6.909 -10.445,5.391 -21.004,10.647 -32,14.834 -35.713,13.597 -71.941,19.424 -110.000004,19.424 -13.364,0 -26.833,-0.493 -40,-3 -4.022,-0.766 -11.012,-2.579 -13.258,2.228 -1.201,2.571 -0.741,6.018 -0.742,8.772 v 18.999998 65 c 0,39.196 -1.571,78.282 5.424,117 11.842,65.535 48.699,124.742 97.576004,169.075 24.173,21.925 51.789,41.063 81,55.678 6.292,3.148 12.561,6.271 19,9.107 3.584,1.579 6.97,3.511 11,2.487 8.183,-2.079 16.478,-7.329 24,-11.1 18.831,-9.44 37.141,-20.75 54,-33.374 64.907,-48.6 111.877,-116.402 126.386,-196.873 5.552,-30.794 4.614,-61.836 4.614,-93 v -84 l -0.001,-20.999998 c -0.014,-2.669 0.327,-6.191 -1.741,-8.258 -2.376,-2.374 -6.315,-1.579 -9.258,-1.163 -7.661,1.085 -15.296,2.505 -23,3.251 -28.558,2.766 -57.974,1.731 -86,-4.711 -23.057,-5.3 -46.013,-12.827 -67,-23.9 -5.403,-2.851 -10.776,-5.863 -16,-9.029 -3.447,-2.09 -6.787,-4.664 -11,-3.357 z"
         id="path355"
         sodipodi:nodetypes="cscsccccsccscccccsccccccccc" />
      <path
         style="fill:#000000;stroke:none;stroke-width:0.989247"
         d="M 52.904016,92.042942 V 202.83864 c 0,29.30447 -0.85867,58.12619 4.56142,87.05376 19.12611,102.07648 98.590364,186.69768 193.288044,225.54839 V 55.440792 c -6.91286,2.51566 -13.21535,6.63785 -19.78494,9.92314 -11.07166,5.53583 -22.87536,10.54043 -34.62366,14.45686 -33.95591,11.32095 -70.98938,17.70951 -106.838714,16.14056 -12.27656,-0.53815 -24.41363,-2.37716 -36.60215,-3.91841"
         id="path357"
         sodipodi:nodetypes="csccccccc" />
      <path
         d="m 250.75348,289.70376 v 70.08078 L 138.44142,289.09704 250.75348,90.440792 Z m 0,92.78 -112.31206,-70.68749 112.31206,168.64452 c 1e-5,-32.65234 1e-5,-65.30469 0,-97.95703 z"
         id="path2230-6"
         style="fill:#ffffff;stroke-width:0.75022"
         sodipodi:nodetypes="ccccccccc" />
      <path
         d="m 250.75348,289.71496 v 70.08472 L 363.06554,289.10821 250.75348,90.440792 Z m 0,92.78521 112.31206,-70.69146 -112.31206,168.654 c -1e-5,-32.65418 -1e-5,-65.30836 0,-97.96254 z"
         id="path4073"
         style="stroke-width:0.750241"
         sodipodi:nodetypes="ccccccccc" />
    </g>
  </g>
</svg>
