<svg width="1000" height="230" viewBox="0 0 1000 230" fill="none" xmlns="http://www.w3.org/2000/svg">
<path d="M42.0515 104.769V226.194H0V64.627H98.5706V104.769H42.0515Z" fill="#0F0F0F"/>
<path d="M200.505 60.9694C242.203 60.9694 278.145 89.082 283.242 133.249C284.255 141.738 283.712 148.098 283.065 153.239H160.01C161.464 178.179 178.59 194.071 201.929 194.13C220.069 194.13 235.623 184.245 239.501 166.664H282.727C276.133 206.394 241.043 229.851 201.738 229.851C152.798 229.851 117.268 193.396 117.268 145.498C117.268 97.601 153.004 60.9987 200.475 60.9841L200.505 60.9694ZM201.224 95.486C182.394 95.53 167.897 107.104 163.006 125.156H239.046C235.139 105.297 218.159 95.486 201.21 95.486H201.224Z" fill="#0F0F0F"/>
<path d="M354.36 226.194L300.015 64.627H343.565L379.491 175.932L415.418 64.627H458.968L404.622 226.194H354.375H354.36Z" fill="#0F0F0F"/>
<path d="M643.742 145.425C643.727 194.057 606.641 229.837 559.58 229.851C512.535 229.851 475.389 193.822 475.389 145.396C475.389 96.9697 513.123 60.955 559.566 60.955C606.053 60.955 643.727 96.7494 643.742 145.425ZM517.881 145.425C517.881 172.025 536.256 189.827 559.566 189.827C583.096 189.827 601.235 172.084 601.235 145.44C601.235 118.987 583.037 101.009 559.551 101.068C536.109 101.024 517.852 118.943 517.867 145.44L517.881 145.425Z" fill="#0F0F0F"/>
<path d="M768.926 64.6268H821.641L756.647 142.355L827.193 226.194H773.993L717.386 158.644V226.194H675.334V0H717.386V128.651L768.926 64.6268Z" fill="#0F0F0F"/>
<path d="M916.701 60.9694C958.4 60.9694 994.341 89.082 999.438 133.249C1000.45 141.738 999.908 148.098 999.262 153.239H876.206C877.66 178.179 894.787 194.071 918.126 194.13C936.265 194.13 951.82 184.245 955.697 166.664H998.924C992.329 206.394 957.24 229.851 917.935 229.851C868.995 229.851 833.465 193.396 833.465 145.498C833.465 97.601 869.2 60.9987 916.672 60.9841L916.701 60.9694ZM917.406 95.486C898.576 95.53 884.079 107.104 879.188 125.156H955.227C951.32 105.297 934.341 95.486 917.391 95.486H917.406Z" fill="#0F0F0F"/>
</svg>
